<svg width="1581" height="245" viewBox="0 0 1581 245" fill="none" xmlns="http://www.w3.org/2000/svg">
<path d="M48.308 28.5061H100.315V7.83373H7.83373V14.5794H92.9168V22.4132H0V0H108.149V36.3398H56.1418V138.178H48.308V28.5061V28.5061ZM33.7286 36.3398H0V28.5061H41.5623V144.489H63.3227V43.0855H71.1564V152.54H33.7286V36.3398V36.3398ZM141.769 0.217603H179.632V50.4841H171.581V8.26894H149.603V144.489H171.581V102.491H179.632V152.54H141.769V0.217603ZM156.783 14.5794H164.617V57.2298H230.986V0.217603H238.602V64.8459H156.783V14.5794V14.5794ZM261.886 8.26894H254.488V65.4987H246.654V0.217603H269.502V152.54H261.886V8.26894V8.26894ZM230.986 95.528H164.617V139.266H156.566V87.4767H238.602V144.489H246.654V80.2958H156.566V72.6796H254.488V152.54H230.986V95.528ZM299.64 0.65281H307.474V144.706H390.816V122.946H329.452V102.056H337.286V115.112H398.65V152.54H299.64V0.65281V0.65281ZM314.437 0.65281H397.562V37.863H345.337V30.0293H389.728V8.48655H322.271V71.374H372.973V79.2078H314.437V0.65281V0.65281ZM314.437 86.1711H380.589V64.4107H329.452V15.0147H382.112V22.8484H337.286V56.577H388.423V94.0048H322.271V130.127H383.2V137.961H314.437V86.1711V86.1711ZM589.271 144.924H585.354L583.613 139.049L551.843 36.9926L543.139 7.83373H549.885L583.831 118.376L587.312 130.127H588.618L592.753 119.9L588.618 107.279L555.76 0.217603H532.476L579.479 152.54H594.493L614.295 105.32L618.43 95.3104L624.087 81.1662L619.953 71.374L614.078 85.3006L609.943 95.3104L589.271 144.924ZM562.723 0.217603L596.452 111.196L620.388 53.9657L663.474 152.758H671.96L620.388 34.1638L597.322 87.2591L570.992 0.217603H562.723V0.217603ZM673.266 67.4572L691.545 7.83373H713.74L711.782 14.1442L689.586 86.8239L676.965 127.951L623.435 4.35208H617.777L594.711 57.8826L598.193 69.4156L620.606 17.6259L627.569 33.511L676.312 146.447L678.271 150.799L724.185 0.217603H685.669L668.696 56.577L673.266 67.4572ZM674.572 86.3887L670.002 75.5085L639.102 4.35208H630.616L675.877 108.802L705.036 13.709H696.767L674.572 86.3887ZM774.996 0.217603H797.844V137.961H790.01V8.05133H782.829V144.706H804.807V0.217603H812.641V152.54H774.996V0.217603ZM848.219 0H870.632V138.178H862.581V7.83373H856.053V144.706H927.645V123.817H892.175V115.983H935.478V152.54H848.219V0V0ZM877.813 0H885.647V130.127H920.681V138.178H877.813V0ZM1080.08 22.1956C1067.02 8.48655 1050.26 0.435207 1033.94 0.435207H970.186V8.26894L1033.94 8.48655C1044.17 8.48655 1053.96 11.7506 1063.32 18.0611C1081.6 30.8997 1093.79 53.9657 1093.79 76.3789C1093.79 88.1295 1091.17 99.0097 1085.73 109.237C1074.85 129.474 1052.88 144.271 1033.94 144.271H978.02V22.1956L1032.2 22.4132C1040.04 22.4132 1047.65 24.8068 1054.83 29.8117C1069.41 39.6039 1078.99 58.3178 1078.99 76.3789C1078.99 89.6527 1073.33 103.362 1063.1 114.024C1053.53 123.599 1042 129.692 1032.42 129.692H1007.61L1007.83 43.7383H1000.22L999.998 133.609V137.526H1032.42C1044.39 137.526 1058.32 130.78 1068.98 119.464C1080.51 107.061 1086.82 91.8288 1086.82 76.3789C1086.82 60.7114 1080.73 45.044 1069.63 32.8582C1057.66 20.89 1044.61 14.3618 1032.2 14.3618H970.186V152.323H1033.94C1049.61 152.323 1066.58 144.271 1079.42 130.562C1093.57 115.983 1101.4 96.616 1101.4 76.3789C1101.4 56.1418 1094 36.9926 1080.08 22.1956V22.1956ZM1031.55 122.728C1037.64 122.728 1043.95 120.335 1050.7 115.765C1063.97 106.408 1072.46 90.7407 1072.46 76.1613C1072.46 68.3276 1070.5 60.7114 1066.8 53.3129C1059.19 38.7335 1045.48 29.5941 1031.55 29.5941L984.766 29.8117L984.983 137.961H992.817V37.4278L1031.55 37.2102C1036.56 37.2102 1041.78 39.1687 1047.22 42.8679C1058.32 50.7017 1064.63 62.8875 1064.63 76.1613C1064.63 85.083 1060.49 95.0928 1053.75 102.709C1047 110.325 1038.73 114.895 1031.55 114.895H1016.1V122.728H1031.55V122.728ZM1123.92 0H1146.34V138.178H1138.29V7.83373H1131.76V144.706H1203.35V123.817H1167.88V115.983H1211.18V152.54H1123.92V0V0ZM1153.52 0H1161.35V130.127H1196.39V138.178H1153.52V0ZM1259.82 0.217603H1282.67V137.961H1274.83V8.05133H1267.65V144.706H1289.63V0.217603H1297.46V152.54H1259.82V0.217603ZM1360.89 116.636C1371.56 121.423 1380.91 123.817 1388.75 123.817C1392.66 123.817 1395.06 123.599 1396.15 122.946C1401.15 121.64 1404.63 118.812 1406.81 114.46L1407.03 114.024C1408.11 112.066 1408.55 109.672 1408.55 106.626C1408.55 105.103 1408.11 103.362 1407.24 101.186L1406.81 100.315C1403.98 94.44 1397.67 90.5231 1386.14 86.8239L1383.96 86.1711L1383.31 85.9535C1365.68 80.731 1354.37 72.462 1348.93 60.929C1346.75 56.577 1345.66 51.7897 1345.66 46.5672C1345.66 41.1271 1346.75 35.9046 1348.93 30.4645L1349.36 29.5941C1354.37 19.5843 1362.42 13.0562 1373.08 9.79217C1380.7 8.70415 1385.05 8.05133 1386.14 8.05133C1400.93 8.05133 1418.12 14.1442 1437.49 26.1124L1441.62 19.3667C1420.52 6.52811 1402.24 0.217603 1386.35 0.217603C1380.04 0.217603 1374.82 0.870413 1371.12 2.39364C1358.28 5.8753 1348.71 13.709 1342.4 26.1124L1341.74 27.6357C1339.13 33.9462 1337.83 40.2567 1337.83 46.5672C1337.83 53.3129 1339.13 59.1882 1341.74 64.4107C1348.49 77.9021 1361.55 87.4767 1381.13 93.352L1383.74 94.2224C1392.66 97.0512 1397.89 100.098 1399.84 103.579L1400.06 104.015C1400.5 104.667 1400.72 105.538 1400.72 106.626C1400.72 108.584 1400.5 109.89 1399.84 110.978C1398.32 114.46 1394.62 116.2 1388.75 116.2C1379.39 116.2 1365.9 111.413 1355.45 104.667L1352.19 102.709L1333.04 133.609L1336.3 135.567C1351.75 146.012 1372.21 152.54 1388.75 152.54C1394.19 152.54 1399.19 151.887 1403.76 150.582C1416.6 146.883 1426.17 138.831 1432.49 126.645L1433.36 125.122C1435.97 118.376 1437.27 112.066 1437.27 106.191C1437.27 100.968 1435.53 94.44 1432.27 86.3887C1426.39 74.6381 1413.99 65.7163 1394.62 59.6234L1391.58 58.753C1385.48 56.7946 1381.35 54.8361 1379.39 53.3129C1376.78 51.1369 1375.26 49.6136 1374.6 48.7432L1374.17 46.3496C1374.17 44.1735 1374.6 42.2151 1375.69 40.6919C1377.43 37.4278 1379.17 36.5574 1386.14 36.5574C1395.49 36.5574 1408.98 41.3447 1419.43 48.0904L1422.69 50.0489L1434.44 31.3349L1430.96 29.3765C1417.69 20.6724 1399.63 14.5794 1386.35 14.5794C1380.48 14.5794 1376.78 15.0147 1374.82 16.1027C1365.9 18.7139 1359.15 24.3716 1354.8 32.8582C1352.84 36.5574 1351.97 40.9095 1351.97 46.3496C1351.97 50.4841 1352.84 54.4009 1354.58 58.1002C1359.15 67.8924 1369.38 75.0733 1385.27 79.8606L1388.09 80.731L1393.97 82.907C1397.23 84.2126 1400.72 85.9535 1404.63 88.1295C1411.6 92.264 1415.08 98.1393 1415.08 105.973C1415.08 110.325 1413.99 114.46 1412.03 118.159C1407.46 126.21 1399.63 130.345 1388.75 130.345C1381.35 130.345 1370.9 127.516 1357.41 122.076L1353.71 128.386L1353.5 128.821C1365.9 135.132 1377.65 138.178 1388.96 138.178C1395.28 138.178 1401.15 136.873 1406.37 134.261C1416.6 129.257 1422.91 118.812 1422.91 105.755C1422.91 85.083 1407.03 78.9901 1390.27 73.1148L1387.44 72.2444C1373.73 68.11 1365.25 62.4523 1361.76 54.8361C1360.46 52.2249 1359.81 49.396 1359.81 46.132C1359.81 41.9975 1360.46 38.7335 1361.98 35.9046C1365.46 29.5941 1370.47 25.4596 1377 23.5012L1385.7 22.4132C1397.23 22.4132 1409.85 26.3301 1423.56 33.9462L1420.08 39.3863C1405.94 32.423 1394.62 28.9413 1386.35 28.9413C1382.22 28.9413 1379.83 29.1589 1378.74 29.8117C1373.95 31.1173 1370.47 33.9462 1368.07 38.5159L1367.86 38.9511C1366.77 40.9095 1366.33 43.5207 1366.33 46.7848C1366.33 49.1784 1366.77 50.9193 1367.42 52.0073C1370.25 57.8826 1377.65 62.6699 1389.4 66.1515L1392.23 67.0219L1397.67 68.7628C1398.32 68.9804 1401.8 70.5036 1408.11 73.55C1416.6 78.3373 1422.69 84.4302 1426.17 91.6112C1428.35 95.9632 1429.44 100.751 1429.44 105.973C1429.44 112.284 1428.35 117.724 1425.96 122.293L1425.52 123.164C1420.52 133.173 1412.47 139.702 1401.8 142.966C1394.19 144.054 1389.83 144.706 1388.75 144.706C1377.65 144.706 1363.29 140.572 1350.01 134.261L1343.92 130.997L1354.8 113.372L1360.89 116.636ZM1521.16 28.5061H1573.17V7.83373H1480.68V14.5794H1565.77V22.4132H1472.85V0H1581V36.3398H1528.99V138.178H1521.16V28.5061ZM1506.58 36.3398H1472.85V28.5061H1514.41V144.489H1536.17V43.0855H1544.01V152.54H1506.58V36.3398Z" fill="white"/>
<path d="M320.557 244.542L312.417 230.774H310.534V244.542H304.039V213.261H315.383C322.462 213.261 325.449 217.439 325.449 222.613C325.449 226.813 323.068 229.541 318.825 230.45L328.242 244.543H320.557L320.557 244.542ZM310.534 218.65V226.119H314.366C317.829 226.119 319.237 224.647 319.237 222.395C319.237 220.165 317.829 218.65 314.366 218.65H310.534V218.65ZM374.3 218.976H362.696V226.076H372.979V231.727H362.696V238.806H374.3V244.543H356.158V213.261H374.3V218.977V218.976ZM425.077 244.542L422.803 238.091H409.663L407.39 244.542H400.744L412.261 213.261H420.206L431.723 244.542H425.077H425.077ZM411.567 232.657H420.897L416.243 219.387L411.567 232.657ZM466.067 238.805H475.874V244.542H459.572V213.261H466.067V238.805V238.805ZM507.058 244.975C505.131 244.975 503.508 243.373 503.508 241.425C503.508 239.476 505.131 237.831 507.058 237.831C509.028 237.831 510.652 239.476 510.652 241.425C510.652 243.373 509.028 244.975 507.058 244.975ZM594.538 218.976H582.632V226.076H592.915V231.727H582.632V244.543H576.094V213.261H594.538V218.977V218.976ZM639.752 244.542L631.612 230.774H629.729V244.542H623.234V213.261H634.578C641.657 213.261 644.644 217.439 644.644 222.613C644.644 226.813 642.263 229.541 638.02 230.45L647.437 244.543H639.752L639.752 244.542ZM629.729 218.65V226.119H633.561C637.024 226.119 638.432 224.647 638.432 222.395C638.432 220.165 637.024 218.65 633.561 218.65H629.729V218.65ZM693.495 218.976H681.891V226.076H692.174V231.727H681.891V238.806H693.495V244.543H675.353V213.261H693.495V218.977V218.976ZM741.478 218.976H729.875V226.076H740.158V231.727H729.875V238.806H741.478V244.543H723.337V213.261H741.478V218.977V218.976ZM774.394 244.975C772.468 244.975 770.844 243.373 770.844 241.425C770.844 239.476 772.468 237.831 774.394 237.831C776.364 237.831 777.988 239.476 777.988 241.425C777.988 243.373 776.364 244.975 774.394 244.975ZM856.442 213.261C862.568 213.261 866.378 217.807 866.378 223.371C866.378 229.064 862.568 233.329 856.442 233.329H849.926V244.543H843.431V213.262H856.442L856.442 213.261ZM855.359 227.894C858.606 227.894 860.122 226.098 860.122 223.283C860.122 220.577 858.607 218.694 855.359 218.694H849.926V227.894H855.359V227.894ZM908.842 244.975C899.641 244.975 892.844 238.697 892.844 228.89C892.844 219.062 899.641 212.827 908.842 212.827C918.021 212.827 924.818 219.062 924.818 228.89C924.818 238.697 918.021 244.975 908.842 244.975ZM908.842 239.022C914.232 239.022 918.367 235.233 918.367 228.89C918.367 222.569 914.232 218.802 908.842 218.802C903.451 218.802 899.317 222.569 899.317 228.89C899.317 235.233 903.451 239.022 908.842 239.022ZM959.034 244.542L950.851 213.261H957.605L963.71 236.945L970.702 213.261H976.179L983.128 236.945L989.298 213.261H996.031L987.848 244.542H979.492L973.43 225.21L967.39 244.542H959.034H959.034ZM1042.33 218.976H1030.72V226.076H1041.01V231.727H1030.72V238.806H1042.33V244.543H1024.19V213.261H1042.33V218.977V218.976ZM1088.69 244.542L1080.55 230.774H1078.66V244.542H1072.17V213.261H1083.51C1090.59 213.261 1093.58 217.439 1093.58 222.613C1093.58 226.813 1091.2 229.541 1086.95 230.45L1096.37 244.543H1088.69L1088.69 244.542ZM1078.66 218.65V226.119H1082.49C1085.96 226.119 1087.37 224.647 1087.37 222.395C1087.37 220.165 1085.96 218.65 1082.49 218.65H1078.66V218.65ZM1142.73 218.976H1130.82V226.076H1141.11V231.727H1130.82V244.543H1124.29V213.261H1142.73V218.977V218.976ZM1183.01 244.975C1176.15 244.975 1170.78 241.468 1170.78 233.588V213.26H1177.27V232.701C1177.27 237.463 1179.8 239.238 1183.01 239.238C1186.23 239.238 1188.79 237.441 1188.79 232.701V213.26H1195.28V233.588C1195.28 241.468 1189.89 244.975 1183.01 244.975ZM1232.38 238.805H1242.18V244.542H1225.88V213.261H1232.38V238.805V238.805ZM1273.37 244.975C1271.44 244.975 1269.82 243.373 1269.82 241.425C1269.82 239.476 1271.44 237.831 1273.37 237.831C1275.34 237.831 1276.96 239.476 1276.96 241.425C1276.96 243.373 1275.34 244.975 1273.37 244.975Z" fill="white"/>
</svg>
